<?xml version="1.0" encoding="UTF-8" standalone="no"?>
<!DOCTYPE svg PUBLIC "-//W3C//DTD SVG 1.1//EN" "http://www.w3.org/Graphics/SVG/1.1/DTD/svg11.dtd">
<svg xmlns="http://www.w3.org/2000/svg" version="1.1" viewBox="0.00 0.00 592.00 158.00">
<g stroke-width="2.60" fill="none" stroke-linecap="butt">
<path stroke="#5b8ce9" vector-effect="non-scaling-stroke" d="
  M 95.19 43.24
  L 63.94 58.32"
/>
<path stroke="#3e79e5" vector-effect="non-scaling-stroke" d="
  M 115.97 85.40
  Q 100.70 93.48 84.42 99.87"
/>
</g>
<g>
<path fill="#292929" d="
  M 358.74 60.65
  Q 362.35 65.84 362.40 69.33
  Q 362.50 77.18 362.55 85.01
  C 362.61 95.00 355.78 101.97 345.98 103.04
  Q 342.61 103.41 322.96 103.20
  A 0.58 0.58 0.0 0 1 322.38 102.62
  L 322.38 22.41
  A 0.61 0.61 0.0 0 1 323.00 21.80
  Q 329.48 21.86 344.01 21.76
  Q 350.39 21.72 353.26 23.07
  C 360.63 26.54 362.64 32.66 362.53 40.49
  C 362.44 47.89 363.42 54.02 358.79 59.64
  A 0.84 0.83 -42.5 0 0 358.74 60.65
  Z
  M 337.10 33.11
  L 337.14 53.69
  A 0.35 0.35 0.0 0 0 337.49 54.04
  L 342.53 54.03
  A 5.15 4.82 -0.1 0 0 347.67 49.20
  L 347.65 37.56
  A 5.15 4.82 -0.1 0 0 342.49 32.75
  L 337.45 32.76
  A 0.35 0.35 0.0 0 0 337.10 33.11
  Z
  M 337.12 66.77
  L 337.12 90.47
  A 0.40 0.40 0.0 0 0 337.52 90.87
  L 342.51 90.87
  A 5.15 4.91 0.0 0 0 347.66 85.96
  L 347.66 71.28
  A 5.15 4.91 -0.0 0 0 342.51 66.37
  L 337.52 66.37
  A 0.40 0.40 0.0 0 0 337.12 66.77
  Z"
/>
<path fill="#6694ea" d="
  M 95.19 43.24
  L 63.94 58.32
  L 57.93 45.94
  A 1.14 1.13 -44.7 0 1 57.94 44.94
  L 67.69 25.26
  A 0.94 0.94 0.0 0 1 68.53 24.74
  L 85.59 24.74
  A 0.91 0.90 -13.3 0 1 86.40 25.24
  L 95.19 43.24
  Z"
/>
<path fill="#292929" d="
  M 209.74 42.68
  L 215.33 55.19
  A 0.31 0.31 0.0 0 0 215.89 55.19
  L 221.50 42.69
  A 0.31 0.31 0.0 0 1 221.78 42.51
  L 236.42 42.51
  A 0.31 0.31 0.0 0 1 236.70 42.95
  L 223.36 72.70
  A 0.31 0.31 0.0 0 0 223.36 72.96
  L 236.69 102.80
  A 0.31 0.31 0.0 0 1 236.41 103.24
  L 221.75 103.24
  A 0.31 0.31 0.0 0 1 221.47 103.06
  L 215.89 90.59
  A 0.31 0.31 0.0 0 0 215.33 90.59
  L 209.73 103.07
  A 0.31 0.31 0.0 0 1 209.45 103.25
  L 179.76 103.25
  A 0.31 0.31 0.0 0 1 179.45 102.97
  L 177.80 88.28
  A 0.31 0.31 0.0 0 0 177.49 88.00
  L 169.89 88.00
  A 0.31 0.31 0.0 0 0 169.58 88.27
  L 167.88 102.97
  A 0.31 0.31 0.0 0 1 167.57 103.24
  L 153.41 103.24
  A 0.31 0.31 0.0 0 1 153.10 102.89
  L 163.98 25.02
  A 0.31 0.31 0.0 0 1 164.29 24.75
  L 183.00 24.75
  A 0.31 0.31 0.0 0 1 183.31 25.02
  L 194.13 102.27
  A 0.31 0.31 0.0 0 0 194.72 102.36
  L 207.88 73.02
  A 0.31 0.31 0.0 0 0 207.88 72.76
  L 194.56 42.94
  A 0.31 0.31 0.0 0 1 194.84 42.50
  L 209.46 42.50
  A 0.31 0.31 0.0 0 1 209.74 42.68
  Z
  M 173.92 53.44
  A 0.10 0.10 0.0 0 0 173.83 53.35
  L 173.67 53.33
  A 0.10 0.10 0.0 0 0 173.56 53.42
  L 170.83 77.12
  A 0.10 0.10 0.0 0 0 170.93 77.23
  L 176.49 77.23
  A 0.10 0.10 0.0 0 0 176.59 77.12
  L 173.92 53.44
  Z"
/>
<path fill="#292929" d="
  M 505.76 47.52
  A 0.29 0.29 0.0 0 0 506.25 47.32
  L 506.25 25.36
  A 0.61 0.61 0.0 0 1 506.86 24.75
  L 519.68 24.75
  A 0.70 0.69 0.0 0 1 520.38 25.44
  L 520.38 102.92
  A 0.33 0.33 0.0 0 1 520.05 103.25
  L 508.43 103.25
  A 0.50 0.50 0.0 0 1 507.96 102.92
  L 506.28 98.52
  A 0.46 0.46 0.0 0 0 505.53 98.36
  Q 498.72 105.29 489.55 104.12
  C 484.08 103.42 481.55 98.10 481.53 92.99
  Q 481.44 71.78 481.54 52.27
  C 481.60 41.07 492.78 38.90 500.71 43.59
  Q 503.59 45.30 505.76 47.52
  Z
  M 495.63 72.90
  Q 495.63 86.82 495.67 88.44
  C 495.84 95.15 502.93 93.69 505.82 89.87
  A 1.79 1.77 65.6 0 0 506.19 88.87
  Q 506.25 87.62 506.25 72.90
  Q 506.24 58.17 506.18 56.93
  A 1.79 1.77 -65.6 0 0 505.81 55.93
  C 502.92 52.11 495.83 50.65 495.66 57.37
  Q 495.62 58.98 495.63 72.90
  Z"
/>
<path fill="#292929" d="
  M 293.82 66.99
  L 281.19 66.99
  A 0.38 0.38 0.0 0 1 280.81 66.61
  Q 280.89 59.42 280.76 57.59
  C 280.35 52.00 270.81 51.72 270.20 58.23
  Q 269.82 62.32 273.76 64.73
  Q 277.92 67.27 284.56 71.18
  C 289.13 73.88 294.31 78.26 294.93 84.25
  C 296.27 97.25 286.78 104.79 274.49 104.36
  C 265.37 104.04 257.50 98.87 256.84 89.24
  Q 256.47 83.82 256.68 81.36
  A 0.56 0.54 -87.1 0 1 257.22 80.86
  L 269.76 80.86
  A 0.52 0.52 0.0 0 1 270.28 81.38
  C 270.28 84.97 269.71 89.33 271.50 91.00
  Q 274.44 93.74 278.25 91.69
  Q 281.66 89.86 280.58 85.23
  Q 280.28 83.94 277.52 82.22
  C 270.89 78.11 259.08 73.23 256.56 64.73
  Q 255.71 61.85 256.15 57.26
  C 257.29 45.34 267.80 40.21 278.78 41.57
  C 289.06 42.85 294.73 49.90 294.54 59.97
  Q 294.51 61.42 294.55 66.25
  A 0.73 0.73 0.0 0 1 293.82 66.99
  Z"
/>
<path fill="#292929" d="
  M 379.13 103.25
  L 366.22 103.25
  A 0.60 0.59 90.0 0 1 365.63 102.65
  L 365.63 43.15
  A 0.65 0.65 0.0 0 1 366.28 42.50
  L 377.62 42.50
  A 0.56 0.56 0.0 0 1 378.14 42.85
  L 379.80 47.20
  A 0.38 0.38 0.0 0 0 380.39 47.35
  C 385.04 43.52 388.81 40.96 395.13 41.40
  A 0.40 0.39 -88.5 0 1 395.50 41.80
  L 395.50 55.95
  A 0.82 0.82 0.0 0 1 394.20 56.61
  L 392.34 55.28
  A 2.30 2.29 -21.1 0 0 391.48 54.90
  Q 385.52 53.58 380.41 56.31
  A 1.00 0.99 76.1 0 0 379.88 57.19
  L 379.88 102.50
  A 0.75 0.75 0.0 0 1 379.13 103.25
  Z"
/>
<path fill="#292929" d="
  M 434.55 103.25
  L 421.72 103.25
  A 0.65 0.64 -6.8 0 1 421.09 102.76
  L 421.02 102.48
  A 0.42 0.42 0.0 0 0 420.40 102.23
  Q 417.31 104.09 412.76 104.30
  Q 399.99 104.89 396.99 94.22
  C 396.00 90.69 396.43 86.01 396.36 81.75
  C 396.21 73.57 399.68 67.59 408.24 66.22
  Q 415.10 65.13 420.60 68.08
  A 0.36 0.36 0.0 0 0 421.13 67.76
  L 421.13 57.09
  A 3.73 3.73 0.0 0 0 417.40 53.36
  L 414.78 53.36
  A 3.66 3.65 0.0 0 0 411.12 57.01
  L 411.12 63.29
  A 0.59 0.59 0.0 0 1 410.53 63.88
  L 397.66 63.88
  A 0.57 0.57 0.0 0 1 397.09 63.33
  C 396.78 55.74 396.90 50.28 403.26 45.25
  C 410.19 39.77 422.32 40.13 429.17 45.31
  C 434.03 48.99 435.29 53.44 435.28 59.93
  Q 435.24 99.82 435.23 102.57
  A 0.68 0.68 0.0 0 1 434.55 103.25
  Z
  M 410.50 85.12
  Q 410.47 88.77 410.50 89.06
  A 2.35 2.31 -63.6 0 0 410.81 90.01
  Q 412.62 93.09 416.22 92.36
  Q 421.76 91.24 421.14 85.52
  Q 421.12 85.38 421.12 85.20
  Q 421.13 85.01 421.14 84.87
  Q 421.85 79.17 416.33 77.96
  Q 412.74 77.18 410.88 80.23
  A 2.35 2.31 64.5 0 0 410.56 81.18
  Q 410.53 81.46 410.50 85.12
  Z"
/>
<path fill="#292929" d="
  M 453.68 47.24
  C 459.01 43.20 464.04 39.79 471.12 41.92
  C 477.27 43.76 477.92 49.81 477.90 56.02
  Q 477.86 69.27 477.89 102.55
  A 0.70 0.70 0.0 0 1 477.19 103.25
  L 464.18 103.25
  A 0.56 0.56 0.0 0 1 463.62 102.69
  Q 463.62 88.71 463.64 57.26
  C 463.65 54.24 462.17 52.64 459.17 52.75
  Q 455.75 52.87 453.39 56.17
  A 1.46 1.42 63.2 0 0 453.13 57.00
  L 453.13 102.80
  A 0.45 0.45 0.0 0 1 452.68 103.25
  L 439.44 103.25
  A 0.57 0.57 0.0 0 1 438.87 102.68
  L 438.87 43.14
  A 0.64 0.63 90.0 0 1 439.50 42.50
  L 450.71 42.50
  A 0.82 0.81 -10.5 0 1 451.47 43.02
  L 453.01 47.04
  A 0.44 0.44 0.0 0 0 453.68 47.24
  Z"
/>
<path fill="#292929" d="
  M 561.49 66.26
  A 0.73 0.73 0.0 0 1 560.76 67.00
  L 548.14 67.00
  A 0.38 0.38 0.0 0 1 547.76 66.62
  Q 547.84 59.43 547.71 57.60
  C 547.30 52.01 537.76 51.73 537.15 58.24
  Q 536.77 62.33 540.71 64.74
  Q 544.87 67.28 551.51 71.19
  C 556.07 73.89 561.25 78.27 561.87 84.26
  C 563.21 97.26 553.71 104.79 541.43 104.36
  C 532.31 104.04 524.44 98.86 523.79 89.24
  Q 523.42 83.82 523.63 81.36
  A 0.56 0.54 -87.1 0 1 524.17 80.86
  L 536.71 80.86
  A 0.52 0.52 0.0 0 1 537.22 81.38
  C 537.22 84.97 536.65 89.33 538.44 91.00
  Q 541.38 93.74 545.19 91.69
  Q 548.60 89.86 547.52 85.23
  Q 547.22 83.94 544.46 82.22
  C 537.84 78.11 526.03 73.23 523.51 64.73
  Q 522.66 61.85 523.10 57.26
  C 524.25 45.34 534.76 40.22 545.74 41.58
  C 556.01 42.86 561.68 49.92 561.49 59.98
  Q 561.46 61.43 561.49 66.26
  Z"
/>
<rect fill="#292929" x="239.37" y="42.51" width="14.26" height="60.74" rx="0.37"/>
<path fill="#4f84e7" d="
  M 95.19 43.24
  L 115.97 85.40
  Q 100.70 93.48 84.42 99.87
  L 63.94 58.32
  L 95.19 43.24
  Z"
/>
<path fill="#f8a14f" d="
  M 53.87 130.50
  L 32.47 130.50
  A 0.94 0.94 0.0 0 1 31.66 130.03
  L 23.47 115.84
  A 0.94 0.94 0.0 0 1 23.44 114.95
  L 38.16 85.24
  A 0.94 0.94 0.0 0 1 39.00 84.72
  L 58.45 84.72
  A 0.94 0.94 0.0 0 1 59.26 85.19
  L 68.50 101.19
  A 0.94 0.94 0.0 0 1 68.53 102.08
  L 54.71 129.98
  A 0.94 0.94 0.0 0 1 53.87 130.50
  Z"
/>
<path fill="#2d6de2" d="
  M 115.97 85.40
  L 130.98 115.73
  A 0.98 0.97 47.1 0 1 130.95 116.65
  L 123.26 129.96
  A 1.08 1.07 -75.0 0 1 122.33 130.50
  L 99.91 130.50
  A 0.66 0.66 0.0 0 1 99.32 130.13
  L 84.42 99.87
  Q 100.70 93.48 115.97 85.40
  Z"
/>
<path fill="#292929" d="
  M 162.49 108.25
  Q 163.45 108.25 164.38 108.29
  A 0.86 0.86 0.0 0 1 165.15 108.85
  L 171.56 125.61
  A 0.40 0.40 0.0 0 1 171.19 126.15
  L 168.14 126.15
  A 0.64 0.64 0.0 0 1 167.54 125.74
  L 166.61 123.30
  A 1.03 1.03 0.0 0 0 165.66 122.63
  Q 165.09 122.63 162.46 122.62
  Q 159.84 122.62 159.27 122.62
  A 1.03 1.03 0.0 0 0 158.32 123.28
  L 157.38 125.72
  A 0.64 0.64 0.0 0 1 156.77 126.13
  L 153.72 126.11
  A 0.40 0.40 0.0 0 1 153.36 125.57
  L 159.83 108.84
  A 0.86 0.86 0.0 0 1 160.60 108.29
  Q 161.53 108.25 162.49 108.25
  Z
  M 162.34 119.38
  Q 164.07 119.40 164.42 119.38
  A 0.49 0.49 0.0 0 0 164.86 118.73
  L 162.62 112.13
  A 0.16 0.16 0.0 0 0 162.51 112.03
  Q 162.47 112.02 162.44 112.02
  Q 162.40 112.02 162.37 112.03
  A 0.16 0.16 0.0 0 0 162.25 112.13
  L 159.84 118.67
  A 0.49 0.49 0.0 0 0 160.27 119.33
  Q 160.62 119.35 162.34 119.38
  Z"
/>
<path fill="#292929" d="
  M 211.34 114.16
  C 212.46 110.87 214.94 112.58 217.15 112.35
  A 0.65 0.65 0.0 0 0 217.73 111.78
  L 218.03 109.11
  A 0.70 0.69 3.2 0 1 218.72 108.50
  L 220.50 108.50
  A 0.50 0.49 -0.0 0 1 221.00 108.99
  L 221.00 111.95
  A 0.46 0.45 -0.0 0 0 221.46 112.40
  L 222.97 112.40
  A 0.52 0.51 90.0 0 1 223.48 112.92
  L 223.48 114.65
  A 0.55 0.54 2.9 0 1 222.88 115.19
  L 221.67 115.05
  A 0.60 0.59 3.4 0 0 221.00 115.64
  L 221.00 122.64
  A 0.71 0.65 -65.8 0 0 221.14 123.06
  Q 221.72 123.80 223.13 123.58
  A 0.31 0.30 -4.1 0 1 223.48 123.88
  L 223.48 125.74
  A 0.27 0.27 0.0 0 1 223.29 126.00
  C 215.82 128.46 217.33 120.06 217.44 116.32
  A 1.01 1.01 0.0 0 0 216.29 115.29
  L 213.14 115.73
  A 2.17 2.17 0.0 0 0 211.27 117.88
  L 211.27 125.81
  A 0.34 0.33 -0.0 0 1 210.93 126.14
  L 208.06 126.14
  A 0.43 0.43 0.0 0 1 207.63 125.71
  L 207.63 112.87
  A 0.52 0.51 -90.0 0 1 208.14 112.35
  L 210.04 112.35
  A 0.59 0.58 86.1 0 1 210.62 112.86
  L 210.80 114.11
  A 0.28 0.28 0.0 0 0 211.34 114.16
  Z"
/>
<path fill="#292929" d="
  M 366.91 116.02
  A 0.83 0.82 -85.8 0 0 366.19 115.19
  L 365.73 115.13
  A 0.76 0.75 -85.9 0 1 365.08 114.38
  Q 365.10 113.17 365.15 112.92
  A 0.75 0.74 11.0 0 1 366.03 112.33
  Q 366.28 112.38 366.30 112.38
  A 0.87 0.87 0.0 0 0 367.19 111.62
  L 367.50 109.07
  A 0.68 0.67 3.2 0 1 368.17 108.48
  L 369.91 108.47
  A 0.57 0.56 89.8 0 1 370.47 109.04
  L 370.48 111.88
  A 0.49 0.48 -0.2 0 0 370.97 112.36
  L 372.49 112.35
  A 0.51 0.51 0.0 0 1 373.00 112.86
  L 373.00 114.58
  A 0.62 0.62 0.0 0 1 372.31 115.21
  L 371.16 115.04
  A 0.59 0.59 0.0 0 0 370.49 115.63
  L 370.51 122.55
  A 0.99 0.97 -79.8 0 0 371.13 123.47
  Q 371.60 123.65 372.12 123.55
  A 0.76 0.76 0.0 0 1 373.03 124.29
  L 373.04 125.29
  A 0.86 0.85 -7.1 0 1 372.38 126.12
  C 368.65 127.02 366.77 125.79 366.83 121.77
  Q 366.85 120.77 366.91 116.02
  Z"
/>
<path fill="#292929" d="
  M 413.09 115.20
  L 412.63 115.14
  A 0.76 0.75 -85.7 0 1 411.98 114.38
  Q 412.00 113.17 412.05 112.92
  A 0.75 0.74 11.2 0 1 412.93 112.34
  Q 413.18 112.39 413.20 112.39
  A 0.87 0.87 0.0 0 0 414.10 111.63
  L 414.41 109.08
  A 0.68 0.67 3.3 0 1 415.08 108.49
  L 416.82 108.49
  A 0.57 0.56 -90.0 0 1 417.38 109.06
  L 417.38 111.90
  A 0.49 0.48 0.0 0 0 417.87 112.38
  L 419.39 112.38
  A 0.51 0.51 0.0 0 1 419.90 112.89
  L 419.90 114.61
  A 0.62 0.62 0.0 0 1 419.20 115.23
  L 418.05 115.06
  A 0.59 0.59 0.0 0 0 417.38 115.65
  L 417.38 122.57
  A 0.99 0.97 -79.7 0 0 418.00 123.49
  Q 418.47 123.67 418.99 123.57
  A 0.76 0.76 0.0 0 1 419.90 124.31
  L 419.90 125.31
  A 0.86 0.85 -6.9 0 1 419.24 126.14
  C 415.51 127.03 413.63 125.80 413.71 121.78
  Q 413.73 120.78 413.80 116.03
  A 0.83 0.82 -85.7 0 0 413.09 115.20
  Z"
/>
<path fill="#292929" d="
  M 181.53 113.85
  Q 181.61 113.68 181.66 113.39
  Q 181.70 113.15 182.12 112.95
  C 186.27 110.90 190.07 112.52 190.70 117.16
  C 191.07 119.82 190.90 123.67 188.58 125.39
  Q 185.52 127.66 181.79 125.06
  A 0.36 0.35 17.5 0 0 181.23 125.35
  L 181.23 130.12
  A 0.37 0.36 -90.0 0 1 180.87 130.49
  L 178.09 130.49
  A 0.47 0.46 -90.0 0 1 177.63 130.02
  L 177.63 112.94
  A 0.58 0.57 -90.0 0 1 178.20 112.36
  L 179.97 112.36
  A 0.79 0.78 -90.0 0 1 180.75 113.15
  L 180.75 113.69
  A 0.41 0.40 56.4 0 0 181.53 113.85
  Z
  M 187.1170 117.7247
  A 2.70 2.70 0.0 0 0 184.3935 115.0483
  L 183.9735 115.0520
  A 2.70 2.70 0.0 0 0 181.2972 117.7755
  L 181.3230 120.7353
  A 2.70 2.70 0.0 0 0 184.0465 123.4117
  L 184.4665 123.4080
  A 2.70 2.70 0.0 0 0 187.1428 120.6845
  L 187.1170 117.7247
  Z"
/>
<path fill="#292929" d="
  M 200.03 117.80
  A 0.86 0.86 0.0 0 0 200.92 116.94
  L 200.92 116.07
  A 1.25 1.25 0.0 0 0 199.82 114.83
  Q 196.84 114.47 196.52 115.71
  A 1.24 1.23 -80.2 0 1 195.34 116.55
  L 193.56 116.52
  A 0.84 0.84 0.0 0 1 192.79 115.36
  Q 193.73 113.02 195.74 112.46
  C 198.52 111.70 204.31 111.70 204.56 115.92
  Q 204.69 118.14 204.60 122.57
  A 0.96 0.96 0.0 0 0 205.18 123.48
  Q 205.24 123.50 205.51 123.58
  A 1.34 1.34 0.0 0 1 205.64 126.14
  Q 203.20 127.03 201.59 125.03
  A 0.55 0.55 0.0 0 0 200.82 124.94
  C 198.73 126.59 193.71 127.54 192.54 124.13
  C 190.76 118.94 196.25 117.67 200.03 117.80
  Z
  M 200.63 120.01
  Q 198.66 119.91 196.93 120.65
  Q 195.81 121.13 195.86 122.25
  Q 195.91 123.33 196.83 123.52
  Q 200.66 124.28 201.02 120.47
  A 0.42 0.41 -86.0 0 0 200.63 120.01
  Z"
/>
<path fill="#292929" d="
  M 228.53 126.09
  L 225.83 126.08
  A 0.48 0.48 0.0 0 1 225.35 125.61
  L 225.38 113.05
  A 0.65 0.65 0.0 0 1 225.90 112.41
  Q 228.35 111.87 228.58 113.64
  A 0.35 0.35 0.0 0 0 229.18 113.82
  C 230.79 111.92 234.04 111.59 235.94 112.78
  C 238.03 114.08 237.80 116.74 237.77 118.96
  Q 237.75 121.37 237.76 125.63
  A 0.47 0.46 -0.5 0 1 237.29 126.10
  L 234.61 126.09
  A 0.47 0.46 0.1 0 1 234.14 125.63
  L 234.17 117.18
  A 2.08 2.07 -5.5 0 0 231.70 115.14
  L 231.44 115.17
  A 2.86 2.86 0.0 0 0 228.97 118.00
  L 228.96 125.66
  A 0.43 0.43 0.0 0 1 228.53 126.09
  Z"
/>
<path fill="#292929" d="
  M 253.17 121.82
  C 252.38 126.61 245.90 127.58 242.45 125.34
  Q 239.93 123.69 239.84 119.50
  Q 239.67 111.41 248.22 112.14
  A 4.83 4.82 -8.0 0 1 252.31 115.22
  L 253.30 117.82
  A 1.63 1.62 -10.5 0 1 251.78 120.02
  L 244.07 120.02
  A 0.56 0.56 0.0 0 0 243.52 120.67
  Q 243.93 122.99 245.04 123.39
  Q 248.32 124.57 249.44 121.94
  A 1.09 1.08 -78.6 0 1 250.44 121.27
  L 252.70 121.27
  A 0.48 0.47 4.6 0 1 253.17 121.82
  Z
  M 243.83 117.75
  L 249.21 117.71
  A 0.18 0.18 0.0 0 0 249.39 117.53
  L 249.39 117.44
  A 2.73 2.72 89.6 0 0 246.65 114.73
  L 246.35 114.73
  A 2.73 2.72 89.6 0 0 243.65 117.48
  L 243.65 117.57
  A 0.18 0.18 0.0 0 0 243.83 117.75
  Z"
/>
<path fill="#292929" d="
  M 258.32 113.92
  A 0.37 0.37 0.0 0 0 258.97 113.89
  Q 260.01 111.69 262.65 112.07
  A 0.67 0.66 -86.1 0 1 263.22 112.72
  L 263.22 115.18
  A 0.49 0.48 4.0 0 1 262.66 115.66
  Q 259.82 115.22 258.94 117.77
  A 1.69 1.60 55.9 0 0 258.85 118.31
  L 258.86 125.64
  A 0.46 0.46 0.0 0 1 258.40 126.10
  L 255.75 126.11
  A 0.49 0.49 0.0 0 1 255.26 125.62
  L 255.23 112.90
  A 0.54 0.53 89.9 0 1 255.76 112.36
  L 257.60 112.35
  A 0.65 0.65 0.0 0 1 258.25 112.98
  Q 258.29 113.88 258.32 113.92
  Z"
/>
<path fill="#292929" d="
  M 295.7632 120.1716
  A 6.02 6.02 0.0 0 1 289.8813 126.3266
  L 287.9818 126.3697
  A 6.02 6.02 0.0 0 1 281.8268 120.4878
  L 281.7768 118.2884
  A 6.02 6.02 0.0 0 1 287.6587 112.1334
  L 289.5582 112.0903
  A 6.02 6.02 0.0 0 1 295.7132 117.9722
  L 295.7632 120.1716
  Z
  M 291.9774 117.7344
  A 2.86 2.86 0.0 0 0 289.1124 114.8794
  L 288.3724 114.8807
  A 2.86 2.86 0.0 0 0 285.5174 117.7456
  L 285.5226 120.7256
  A 2.86 2.86 0.0 0 0 288.3876 123.5806
  L 289.1276 123.5793
  A 2.86 2.86 0.0 0 0 291.9826 120.7144
  L 291.9774 117.7344
  Z"
/>
<path fill="#292929" d="
  M 320.62 119.19
  C 320.61 120.75 320.83 123.07 322.79 123.48
  Q 325.85 124.12 326.32 121.28
  A 0.50 0.49 4.0 0 1 326.81 120.86
  L 329.52 120.86
  A 0.37 0.36 2.8 0 1 329.89 121.26
  Q 329.46 125.99 324.25 126.38
  C 319.17 126.75 316.97 123.86 317.00 119.17
  C 317.03 114.49 319.26 111.62 324.34 112.06
  Q 329.54 112.51 329.91 117.24
  A 0.37 0.36 -2.1 0 1 329.54 117.64
  L 326.83 117.60
  A 0.50 0.49 -3.3 0 1 326.35 117.18
  Q 325.91 114.33 322.84 114.93
  C 320.88 115.32 320.63 117.63 320.62 119.19
  Z"
/>
<path fill="#292929" d="
  M 339.05 117.79
  A 0.86 0.86 0.0 0 0 339.94 116.93
  L 339.95 116.07
  A 1.25 1.24 -86.5 0 0 338.85 114.82
  Q 335.88 114.45 335.55 115.69
  A 1.24 1.23 -80.0 0 1 334.37 116.53
  L 332.59 116.49
  A 0.84 0.84 0.0 0 1 331.83 115.33
  Q 332.77 113.00 334.78 112.44
  C 337.56 111.69 343.35 111.71 343.58 115.93
  Q 343.71 118.14 343.60 122.57
  A 0.96 0.96 0.0 0 0 344.18 123.48
  Q 344.24 123.50 344.51 123.58
  A 1.34 1.34 0.0 0 1 344.63 126.14
  Q 342.19 127.02 340.59 125.02
  A 0.55 0.55 0.0 0 0 339.82 124.93
  C 337.73 126.57 332.71 127.50 331.55 124.09
  C 329.79 118.90 335.28 117.65 339.05 117.79
  Z
  M 339.67 120.02
  Q 337.72 119.92 336.00 120.66
  Q 334.89 121.14 334.95 122.25
  Q 335.00 123.33 335.91 123.51
  Q 339.71 124.25 340.06 120.47
  A 0.42 0.41 -86.2 0 0 339.67 120.02
  Z"
/>
<path fill="#292929" d="
  M 349.85 126.15
  L 347.14 126.15
  A 0.48 0.48 0.0 0 1 346.66 125.67
  L 346.66 113.05
  A 0.66 0.65 -6.0 0 1 347.18 112.41
  Q 349.64 111.86 349.87 113.64
  A 0.35 0.35 0.0 0 0 350.48 113.82
  C 352.09 111.90 355.36 111.57 357.28 112.76
  C 359.38 114.06 359.15 116.73 359.13 118.96
  Q 359.11 121.38 359.13 125.67
  A 0.47 0.46 -0.6 0 1 358.66 126.14
  L 355.97 126.14
  A 0.47 0.46 0.0 0 1 355.50 125.68
  L 355.51 117.18
  A 2.09 2.08 -5.6 0 0 353.01 115.14
  L 352.75 115.17
  A 2.88 2.87 -4.0 0 0 350.28 118.01
  L 350.28 125.72
  A 0.43 0.43 0.0 0 1 349.85 126.15
  Z"
/>
<path fill="#292929" d="
  M 378.63 113.89
  Q 379.68 111.69 382.32 112.07
  A 0.67 0.66 -86.0 0 1 382.89 112.73
  L 382.89 115.19
  A 0.49 0.49 0.0 0 1 382.33 115.67
  Q 379.48 115.23 378.59 117.78
  A 1.69 1.60 56.0 0 0 378.50 118.32
  L 378.50 125.67
  A 0.46 0.46 0.0 0 1 378.04 126.13
  L 375.38 126.13
  A 0.49 0.49 0.0 0 1 374.89 125.64
  L 374.89 112.89
  A 0.54 0.53 -90.0 0 1 375.42 112.35
  L 377.26 112.35
  A 0.65 0.65 0.0 0 1 377.91 112.98
  Q 377.95 113.88 377.98 113.92
  A 0.37 0.37 0.0 0 0 378.63 113.89
  Z"
/>
<path fill="#292929" d="
  M 410.19 116.39
  L 408.01 116.39
  A 0.94 0.91 76.2 0 1 407.19 115.88
  Q 406.26 114.05 403.11 115.10
  A 0.79 0.79 0.0 0 0 402.72 116.31
  Q 403.18 116.95 404.32 117.21
  Q 407.52 117.92 409.85 119.01
  A 1.86 1.85 86.3 0 1 410.63 119.70
  Q 411.52 121.13 411.03 123.19
  C 410.11 127.12 403.53 126.71 400.90 125.58
  Q 399.09 124.80 398.71 122.32
  A 0.51 0.51 0.0 0 1 399.21 121.73
  L 401.22 121.73
  A 1.04 1.03 -15.3 0 1 402.11 122.23
  Q 403.71 124.88 407.02 123.23
  A 1.04 1.03 -48.1 0 0 406.92 121.33
  C 404.15 120.31 397.99 119.94 399.11 115.30
  C 400.19 110.84 410.31 110.88 410.80 115.70
  A 0.62 0.61 86.7 0 1 410.19 116.39
  Z"
/>
<path fill="#292929" d="
  M 274.50 121.85
  A 0.11 0.11 0.0 0 0 274.71 121.84
  L 277.30 113.04
  A 0.97 0.96 -81.4 0 1 278.22 112.35
  L 280.35 112.35
  A 0.54 0.54 0.0 0 1 280.86 113.05
  Q 278.25 121.08 275.55 127.76
  Q 275.17 128.70 273.63 130.08
  A 1.62 1.60 -65.5 0 1 272.56 130.49
  L 268.76 130.49
  A 0.56 0.55 90.0 0 1 268.21 129.93
  L 268.21 128.84
  A 0.57 0.57 0.0 0 1 268.82 128.27
  Q 270.67 128.40 272.05 127.05
  A 1.20 1.19 -32.8 0 0 272.33 125.77
  L 267.41 112.90
  A 0.39 0.39 0.0 0 1 267.77 112.37
  L 270.39 112.37
  A 0.72 0.70 79.0 0 1 271.05 112.83
  L 274.50 121.85
  Z"
/>
<path fill="#292929" d="
  M 310.24 112.81
  L 310.24 125.42
  A 0.66 0.65 -6.0 0 1 309.72 126.06
  Q 307.26 126.61 307.03 124.83
  A 0.35 0.35 0.0 0 0 306.42 124.65
  C 304.81 126.57 301.55 126.90 299.63 125.71
  C 297.53 124.41 297.76 121.74 297.78 119.51
  Q 297.80 117.09 297.78 112.81
  A 0.47 0.46 -0.6 0 1 298.25 112.34
  L 300.94 112.34
  A 0.47 0.46 0.0 0 1 301.41 112.80
  L 301.40 121.29
  A 2.09 2.08 -5.6 0 0 303.89 123.33
  L 304.15 123.30
  A 2.87 2.87 0.0 0 0 306.62 120.46
  L 306.62 112.76
  A 0.43 0.43 0.0 0 1 307.05 112.33
  L 309.76 112.33
  A 0.48 0.48 0.0 0 1 310.24 112.81
  Z"
/>
<path fill="#292929" d="
  M 393.35 112.39
  L 396.05 112.40
  A 0.48 0.48 0.0 0 1 396.53 112.88
  L 396.51 125.43
  A 0.65 0.65 0.0 0 1 396.00 126.07
  Q 393.55 126.62 393.32 124.84
  A 0.35 0.35 0.0 0 0 392.71 124.66
  C 391.11 126.57 387.86 126.90 385.95 125.71
  C 383.86 124.42 384.09 121.76 384.11 119.54
  Q 384.13 117.13 384.12 112.86
  A 0.47 0.46 -0.5 0 1 384.59 112.40
  L 387.27 112.40
  A 0.47 0.46 0.1 0 1 387.73 112.86
  L 387.72 121.31
  A 2.08 2.07 -5.5 0 0 390.19 123.35
  L 390.45 123.32
  A 2.86 2.86 0.0 0 0 392.91 120.49
  L 392.92 112.82
  A 0.43 0.43 0.0 0 1 393.35 112.39
  Z"
/>
<rect fill="#292929" x="-1.87" y="-1.88" transform="translate(424.00,124.25) rotate(0.3)" width="3.74" height="3.76" rx="0.41"/>
</g>
</svg>
